<svg width="347" height="32" viewBox="0 0 347 32" fill="none" xmlns="http://www.w3.org/2000/svg">
<path d="M13.6471 0.759999L18.1411 15.25L27.8011 0.759999H35.7391L30.4051 31H22.8031L25.8271 13.948L19.3591 24.112H13.8571L11.0011 13.948L7.97714 31H0.417141L5.75114 0.759999H13.6471ZM57.4718 31H36.3878L41.7218 0.759999H62.8058L61.6298 7.312H48.1058L47.1398 12.982H58.3118L57.1358 19.534H45.9638L45.1238 24.448H58.6478L57.4718 31ZM92.2557 7.312H81.9237L77.7657 31H70.1637L74.3217 7.312H63.9477L65.1237 0.759999H93.4317L92.2557 7.312ZM104.086 31L104.338 24.406H97.3239L95.2659 31H87.2439L98.0379 0.759999H111.898L112.066 31H104.086ZM102.364 8.11L99.0459 18.778H104.548L105.01 8.11H102.364ZM126.666 31.588C122.662 31.588 119.89 30.72 118.35 28.984C117.286 27.752 116.754 26.03 116.754 23.818C116.754 22.866 116.852 21.844 117.048 20.752L118.77 11.092C120.03 4.008 124.58 0.465998 132.42 0.465998C135.668 0.465998 138.132 1.166 139.812 2.566C141.492 3.938 142.332 5.828 142.332 8.236C142.332 9.356 142.164 10.476 141.828 11.596C141.52 12.688 141.212 13.5 140.904 14.032L140.442 14.872H133.008C133.932 13.808 134.394 12.296 134.394 10.336C134.394 9.3 134.128 8.488 133.596 7.9C133.064 7.284 132.28 6.976 131.244 6.976C128.416 6.976 126.736 8.544 126.204 11.68L124.734 20.164C124.594 20.892 124.524 21.606 124.524 22.306C124.524 24.154 125.63 25.078 127.842 25.078C130.502 25.078 132.098 23.58 132.63 20.584H140.19L139.98 21.802C138.86 28.326 134.422 31.588 126.666 31.588ZM156.128 0.759999L150.836 31H143.234L148.568 0.759999H156.128ZM186.715 7.312H176.383L172.225 31H164.623L168.781 7.312H158.407L159.583 0.759999H187.891L186.715 7.312ZM198.907 0.759999L193.615 31H186.013L191.347 0.759999H198.907ZM220.59 31H198.456L199.632 24.448H199.674L215.928 7.312H202.614L203.79 0.759999H225.966L224.79 7.312L208.536 24.448H221.766L220.59 31ZM246.595 31H225.511L230.845 0.759999H251.929L250.753 7.312H237.229L236.263 12.982H247.435L246.259 19.534H235.087L234.247 24.448H247.771L246.595 31ZM280.077 0.759999L274.785 31H267.183L261.891 14.452L259.035 31H251.433L256.767 0.759999H264.579L269.787 16.216L272.517 0.759999H280.077ZM280.13 28.564C280.13 26.772 280.522 25.47 281.306 24.658C282.09 23.818 283.336 23.398 285.044 23.398C287.396 23.398 288.572 24.434 288.572 26.506C288.572 28.27 288.166 29.558 287.354 30.37C286.57 31.182 285.324 31.588 283.616 31.588C281.292 31.588 280.13 30.58 280.13 28.564ZM310.167 0.759999C313.359 0.759999 315.627 1.46 316.971 2.86C317.979 3.924 318.483 5.268 318.483 6.892C318.483 7.452 318.427 8.04 318.315 8.656L317.937 10.672C317.629 12.268 317.027 13.514 316.131 14.41C315.263 15.306 314.493 15.754 313.821 15.754L313.779 16.09C314.563 16.09 315.361 16.524 316.173 17.392C316.985 18.26 317.391 19.282 317.391 20.458C317.391 20.934 317.335 21.438 317.223 21.97L316.971 23.272C316.523 25.68 315.445 27.57 313.737 28.942C312.057 30.314 309.705 31 306.681 31H292.653L297.987 0.759999H310.167ZM306.387 18.652H302.397L301.389 24.448H305.379C305.435 24.448 305.491 24.448 305.547 24.448C306.835 24.448 307.857 24.154 308.613 23.566C309.369 22.95 309.747 22.208 309.747 21.34C309.747 19.548 308.627 18.652 306.387 18.652ZM307.521 7.312H304.371L303.279 13.57H306.387C309.075 13.57 310.419 12.394 310.419 10.042C310.419 9.23 310.167 8.572 309.663 8.068C309.187 7.564 308.473 7.312 307.521 7.312ZM341.341 31H320.257L325.591 0.759999H346.675L345.499 7.312H331.975L331.009 12.982H342.181L341.005 19.534H329.833L328.993 24.448H342.517L341.341 31Z" fill="white"/>
</svg>
